<svg xmlns="http://www.w3.org/2000/svg" viewBox="0 0 24 24">
    <symbol viewBox="0 0 24 24" id="onground">
        <path fill-rule="evenodd"
            d="M2 16.846V19h21v-2.154zm22-3.421c-.886-1.416-1.33-1.492-3.619-1.64l-5.686-.224c-.074 0-.074 0-.147-.075-1.92-1.788-4.505-3.952-7.016-6.188C7.237 5.074 7.015 5 6.794 5h-.812c-.222 0-.444 0-.296.224.96 1.863 2.29 4.398 3.25 6.262.073.15 0 .299-.148.299h-3.84c-1.256-.894-2.216-1.64-3.176-2.311L0 9.549c1.698 2.832 1.772 2.832 2.88 4.621.295.373.665.522 1.403.522h17.65c1.55 0 2.067-.372 2.067-1.267"
            clip-rule="evenodd" />
    </symbol>
    <symbol viewBox="0 0 24 24" id="inclimb">
        <path fill-rule="evenodd"
            d="M23.903 6.707c-1.415-1.04-1.887-.866-4.01.087l-5.426 2.513h-.078c-2.516-.866-5.819-1.906-9.042-3.033-.315-.087-.55-.087-.865.087l-.787.433c-.157.087-.393.173-.157.347 1.651 1.386 4.01 3.293 5.74 4.766a.284.284 0 0 1 0 .347c-.786.433-3.145 1.647-3.46 1.734-.078.086-.078 0-.078 0-1.73-.174-2.91-.52-4.167-.694L0 14.248c2.752 2.08 3.066 2.166 4.875 3.553.472.433.865.087 1.494-.347l16.119-8.407c.943-.606 1.808-1.386 1.415-2.34"
            clip-rule="evenodd" />
    </symbol>
    <symbol viewBox="0 0 24 24" id="inflight">
        <path fill-rule="evenodd"
            d="M21.593 14.043c-1.43.078-5.041-.079-5.041-.079S10.382 23.078 9.404 23a18 18 0 0 1-1.956-.315s4.514-8.957 3.386-8.878c-1.129.078-6.094-.157-6.094-.157s-2.784 3.614-3.085 3.535c-.3 0-1.655-.157-1.655-.157S1.58 12.943 1.58 12v-.079C1.58 10.978 0 6.893 0 6.893s1.279-.157 1.655-.157c.301 0 3.16 3.535 3.16 3.535s4.966-.236 6.094-.157-3.385-8.878-3.385-8.878.902-.157 1.88-.236c.978.079 7.223 9.193 7.223 9.193s3.611-.079 5.04-.079c1.43.079 2.333 1.964 2.333 1.964-.075.158-.978 1.965-2.407 1.965"
            clip-rule="evenodd" />
    </symbol>
    <symbol viewBox="0 0 24 24" id="indescent">
        <path fill-rule="evenodd"
            d="M24 19.296c-.344-1.755-.86-2.006-3.183-3.01l-5.935-2.34-.086-.083c-1.377-2.508-3.183-5.684-4.904-8.86-.172-.334-.344-.418-.774-.585l-.86-.334C8 4 7.828 3.916 7.914 4.167a199 199 0 0 1 1.032 7.523c0 .167-.172.25-.258.25a340 340 0 0 1-3.957-1.42c-.086 0-.086-.084-.086-.084-1.204-1.421-1.892-2.508-2.753-3.594L0 6.257c.688 3.427.86 3.845 1.29 6.101.086.669.602.669 1.377.92l18.408 6.352c1.377.502 2.58.585 2.925-.334"
            clip-rule="evenodd" />
    </symbol>
</svg>