<?xml version="1.0" encoding="UTF-8" standalone="no"?>
<!-- Created with Inkscape (http://www.inkscape.org/) -->

<svg
   width="28"
   height="112"
   viewBox="0 0 7.4083332 29.633333"
   version="1.1"
   id="svg1"
   xml:space="preserve"
   inkscape:export-filename="..\src\assets\images\sprites\flightstatusSprite.png"
   inkscape:export-xdpi="96"
   inkscape:export-ydpi="96"
   inkscape:version="1.3.2 (091e20e, 2023-11-25, custom)"
   sodipodi:docname="flightstatus.svg"
   xmlns:inkscape="http://www.inkscape.org/namespaces/inkscape"
   xmlns:sodipodi="http://sodipodi.sourceforge.net/DTD/sodipodi-0.dtd"
   xmlns="http://www.w3.org/2000/svg"
   xmlns:svg="http://www.w3.org/2000/svg"><sodipodi:namedview
     id="namedview1"
     pagecolor="#505050"
     bordercolor="#eeeeee"
     borderopacity="1"
     inkscape:showpageshadow="0"
     inkscape:pageopacity="0"
     inkscape:pagecheckerboard="0"
     inkscape:deskcolor="#505050"
     inkscape:document-units="px"
     showgrid="true"
     inkscape:zoom="4.7017841"
     inkscape:cx="12.654771"
     inkscape:cy="47.854176"
     inkscape:window-width="2944"
     inkscape:window-height="1716"
     inkscape:window-x="-12"
     inkscape:window-y="-12"
     inkscape:window-maximized="1"
     inkscape:current-layer="layer1"><inkscape:grid
       type="xygrid"
       id="grid1658"
       enabled="true"
       visible="true"
       snapvisiblegridlinesonly="true"
       spacingx="7.4083332"
       spacingy="7.4083332"
       originx="3.7041666"
       originy="3.7041666"
       units="px" /></sodipodi:namedview><defs
     id="defs1" /><g
     inkscape:label="Aircrafts"
     inkscape:groupmode="layer"
     id="layer1"
     style="display:inline"><path
       fill-rule="evenodd"
       d="m 6.8792217,27.859617 c -0.091,-0.46434 -0.22754,-0.53075 -0.84217,-0.79639 l -1.5703,-0.61913 -0.0228,-0.022 c -0.36433,-0.66357 -0.84216,-1.50389 -1.29751,-2.34421 -0.0455,-0.0884 -0.091,-0.11059 -0.20479,-0.15478 l -0.22754,-0.0884 c -0.0683,-0.0222 -0.11377,-0.0444 -0.091,0.022 a 52.652083,52.652083 0 0 1 0.27305,1.99046 c 0,0.0442 -0.0455,0.0661 -0.0683,0.0661 a 89.958332,89.958332 0 0 1 -1.04696,-0.37571 c -0.0228,0 -0.0228,-0.0222 -0.0228,-0.0222 -0.31856,-0.37598 -0.50059,-0.66358 -0.7284,-0.95092 l -0.50059004,-0.15478 c 0.18203,0.90673 0.22754,1.01733 0.34131,1.61423 0.0228,0.177 0.15928004,0.177 0.36433004,0.24341 l 4.87044,1.68064 c 0.36434,0.13282 0.68263,0.15478 0.77391,-0.0884"
       clip-rule="evenodd"
       id="path4-2"
       style="stroke-width:0.264583;font-variation-settings:normal;opacity:1;vector-effect:none;fill:#0bd3a7;fill-opacity:1;stroke-linecap:butt;stroke-linejoin:miter;stroke-miterlimit:4;stroke-dasharray:none;stroke-dashoffset:0;stroke-opacity:1;-inkscape-stroke:none;stop-color:#000000;stop-opacity:1" /><path
       fill-rule="evenodd"
       d="m 6.2423157,19.061182 c -0.37836,0.0206 -1.33377,-0.0209 -1.33377,-0.0209 0,0 -1.63248,2.41141 -1.89124,2.39078 a 4.7624999,4.7624999 0 0 1 -0.51752,-0.0833 c 0,0 1.19432,-2.36987 0.89587,-2.34897 -0.29871,0.0206 -1.61237,-0.0415 -1.61237,-0.0415 0,0 -0.7366,0.95621 -0.81624004,0.9353 -0.0794,0 -0.43788,-0.0415 -0.43788,-0.0415 0,0 0.41804,-1.08082 0.41804,-1.33032 v -0.0209 c 0,-0.24951 -0.41804,-1.33033 -0.41804,-1.33033 0,0 0.3384,-0.0415 0.43788,-0.0415 0.0796,0 0.83609004,0.9353 0.83609004,0.9353 0,0 1.31392,-0.0624 1.61237,-0.0415 0.29845,0.0209 -0.89562,-2.34897 -0.89562,-2.34897 0,0 0.23866,-0.0415 0.49742,-0.0624 0.25876,0.0209 1.91109,2.43232 1.91109,2.43232 0,0 0.95541,-0.0209 1.3335,-0.0209 0.37835,0.0209 0.617272,0.51965 0.617272,0.51965 -0.0198,0.0418 -0.258762,0.5199 -0.636852,0.5199"
       clip-rule="evenodd"
       id="path3"
       style="display:inline;stroke-width:0.264583;font-variation-settings:normal;opacity:1;vector-effect:none;fill:#0bd3a7;fill-opacity:1;stroke-linecap:butt;stroke-linejoin:miter;stroke-miterlimit:4;stroke-dasharray:none;stroke-dashoffset:0;stroke-opacity:1;-inkscape-stroke:none;stop-color:#000000;stop-opacity:1" /><path
       fill-rule="evenodd"
       d="m 6.8533638,9.7120905 c -0.37439,-0.27517 -0.49927,-0.22913 -1.06098,0.023 l -1.43563,0.6649005 h -0.0206 c -0.66569,-0.22913 -1.53961,-0.5043005 -2.39236,-0.8024805 -0.0833,-0.023 -0.14552,-0.023 -0.22887,0.023 l -0.20822,0.11457 c -0.0415,0.023 -0.10399,0.0458 -0.0415,0.0918 0.43682,0.3667105 1.06097,0.8712705 1.5187,1.2610005 a 0.07514167,0.07514167 0 0 1 0,0.0918 c -0.20796,0.11457 -0.83211,0.43577 -0.91545,0.45879 -0.0206,0.0228 -0.0206,0 -0.0206,0 -0.45773,-0.046 -0.76994,-0.13758 -1.10251999,-0.18362 l -0.41619,0.25241 c 0.72812999,0.55034 0.81120999,0.57309 1.28983999,0.94007 0.12489,0.11456 0.22887,0.023 0.39529,-0.0918 l 4.26482,-2.22435 c 0.2495,-0.16034 0.47837,-0.3667205 0.37439,-0.6191305"
       clip-rule="evenodd"
       id="path2"
       style="display:inline;stroke-width:0.264583;font-variation-settings:normal;opacity:1;vector-effect:none;fill:#0bd3a7;fill-opacity:1;stroke-linecap:butt;stroke-linejoin:miter;stroke-miterlimit:4;stroke-dasharray:none;stroke-dashoffset:0;stroke-opacity:1;-inkscape-stroke:none;stop-color:#000000;stop-opacity:1" /><path
       fill-rule="evenodd"
       d="m 1.0583517,4.9863116 v 0.56991 h 5.55624 v -0.56991 z m 5.82083,-0.90514 c -0.23442,-0.37465 -0.3519,-0.39476 -0.95753,-0.43392 l -1.50442,-0.0593 c -0.0196,0 -0.0196,0 -0.0389,-0.0198 -0.508,-0.47307 -1.19195,-1.04563 -1.85632,-1.63724 -0.0781,-0.0593 -0.13679,-0.0788 -0.19526,-0.0788 h -0.21484 c -0.0587,0 -0.11748,0 -0.0783,0.0593 0.254,0.49292 0.60589,1.16364 0.85989,1.65682 0.0193,0.0397 0,0.0791 -0.0392,0.0791 h -1.016 c -0.33231,-0.23653 -0.58631,-0.43391 -0.84031004,-0.61145 l -0.46884,0.0198 c 0.44926,0.7493 0.46884,0.7493 0.76200004,1.22264 0.0781,0.0987 0.17594,0.13811 0.37121,0.13811 h 4.66989 c 0.41011,0 0.5469,-0.0984 0.5469,-0.33523"
       clip-rule="evenodd"
       id="path1"
       style="display:inline;stroke-width:0.264583;fill:#0bd3a7;fill-opacity:1;font-variation-settings:normal;opacity:1;vector-effect:none;stroke-linecap:butt;stroke-linejoin:miter;stroke-miterlimit:4;stroke-dasharray:none;stroke-dashoffset:0;stroke-opacity:1;-inkscape-stroke:none;stop-color:#000000;stop-opacity:1" /></g></svg>
